<svg xmlns="http://www.w3.org/2000/svg" width="24" height="24" viewBox="0 0 24 24"><defs><style>.a{fill:rgba(255,255,255,0);}.b{fill:#333;}</style></defs><g transform="translate(-470 -1192)"><rect class="a" width="24" height="24" transform="translate(470 1192)"/><path class="b" d="M5.945,43h6a3,3,0,0,0,3-3h1a4,4,0,0,0,0-8H3.7a.748.748,0,0,0-.75.75V40A3,3,0,0,0,5.945,43Zm10-9a2,2,0,1,1,0,4h-1V34Zm1.49,12H1.455C-.032,46-.451,44,.33,44H18.557c.781,0,.369,2-1.122,2Z" transform="translate(472.056 1165)"/></g></svg>