<svg xmlns="http://www.w3.org/2000/svg" width="24" height="24" viewBox="0 0 24 24"><defs><style>.a{fill:rgba(255,255,255,0);}.b{fill:#b4afaa;}</style></defs><g transform="translate(-160 -1231)"><rect class="a" width="24" height="24" transform="translate(160 1231)"/><path class="b" d="M15.692,1.8A1.054,1.054,0,0,0,14.946,0H1.059A1.054,1.054,0,0,0,.313,1.8L7,8.489V14.5H5.252A1.25,1.25,0,0,0,4,15.75a.25.25,0,0,0,.25.25h7.5a.25.25,0,0,0,.25-.25,1.25,1.25,0,0,0-1.25-1.25H9V8.489ZM13.87,1.5,12.37,3H3.635l-1.5-1.5Z" transform="translate(163.998 1235)"/></g></svg>