<svg xmlns="http://www.w3.org/2000/svg" width="24" height="24" viewBox="0 0 24 24"><defs><style>.a{fill:rgba(255,255,255,0);}.b{fill:#b4afaa;}</style></defs><g transform="translate(-160 -1348)"><rect class="a" width="24" height="24" transform="translate(160 1348)"/><path class="b" d="M25.347,18.774l-6.7-10.215a.381.381,0,0,0-.649,0L16.681,10.57a.473.473,0,0,0,0,.513l1.875,2.859a.471.471,0,0,1-.091.613.377.377,0,0,1-.558-.1l-1.886-2.876,0,0-2.577-3.93a.381.381,0,0,0-.649,0L5.5,18.774a.443.443,0,0,0,.325.7h19.2A.443.443,0,0,0,25.347,18.774Z" transform="translate(156.577 1346.531)"/></g></svg>