<svg xmlns="http://www.w3.org/2000/svg" width="24" height="24" viewBox="0 0 24 24"><defs><style>.a{fill:rgba(255,255,255,0);}.b{fill:#b4afaa;}</style></defs><g transform="translate(-470 -1231)"><rect class="a" width="24" height="24" transform="translate(470 1231)"/><path class="b" d="M10.125,66.339v-.652h.563a.562.562,0,0,0,.563-.562v-.562A.562.562,0,0,0,10.688,64H7.313a.562.562,0,0,0-.562.563v.563a.562.562,0,0,0,.563.563h.563v.652a7.87,7.87,0,0,0-6.75,7.786h15.75A7.87,7.87,0,0,0,10.125,66.339Zm7.313,8.911H.563A.562.562,0,0,0,0,75.813v1.125a.562.562,0,0,0,.563.563H17.438A.562.562,0,0,0,18,76.938V75.813A.562.562,0,0,0,17.438,75.25Z" transform="translate(473 1172.5)"/></g></svg>