<svg xmlns="http://www.w3.org/2000/svg" width="24" height="24" viewBox="0 0 24 24"><defs><style>.a{fill:rgba(255,255,255,0);}.b{fill:#b4afaa;}</style></defs><g transform="translate(-470 -1309)"><rect class="a" width="24" height="24" transform="translate(470 1309)"/><path class="b" d="M5,69v2H15V69a2,2,0,0,1,2-2h1a3,3,0,0,0-3-3H5a3,3,0,0,0-3,3H3A2,2,0,0,1,5,69Zm13-1H17a1,1,0,0,0-1,1v3H4V69a1,1,0,0,0-1-1H2a1.994,1.994,0,0,0-1,3.722V75.5a.5.5,0,0,0,.5.5h2a.5.5,0,0,0,.5-.5V75H16v.5a.5.5,0,0,0,.5.5h2a.5.5,0,0,0,.5-.5V71.722A1.994,1.994,0,0,0,18,68Z" transform="translate(472 1251)"/></g></svg>