<svg xmlns="http://www.w3.org/2000/svg" width="24" height="24" viewBox="0 0 24 24"><defs><style>.a{fill:rgba(255,255,255,0);}.b{fill:#333;}</style></defs><g transform="translate(-160 -1192)"><rect class="a" width="24" height="24" transform="translate(160 1192)"/><path class="b" d="M19.842,35.84a14.53,14.53,0,0,0-19.682,0,.5.5,0,0,0-.011.718l1.07,1.062a.507.507,0,0,0,.7.012,11.99,11.99,0,0,1,16.164,0,.508.508,0,0,0,.7-.012l1.07-1.062A.5.5,0,0,0,19.842,35.84ZM10,42a2,2,0,1,0,2,2A2,2,0,0,0,10,42Zm6.333-2.612a9.594,9.594,0,0,0-12.667,0,.494.494,0,0,0-.018.723l1.076,1.062a.51.51,0,0,0,.689.025,7.038,7.038,0,0,1,9.172,0,.51.51,0,0,0,.689-.025l1.076-1.062A.494.494,0,0,0,16.334,39.388Z" transform="translate(161.999 1165)"/></g></svg>