<svg xmlns="http://www.w3.org/2000/svg" width="24" height="24" viewBox="0 0 24 24"><defs><style>.a{fill:rgba(255,255,255,0);}</style></defs><g transform="translate(-470 -1387)"><rect class="a" width="24" height="24" transform="translate(470 1387)"/><path d="M17.438,34.251h-2.25l-.252-.5a1.125,1.125,0,0,0-1.006-.622H12.045l-.959-.959a.563.563,0,0,0-.96.4v5.268l4.5,1.607V38.189H15.75A2.25,2.25,0,0,0,18,35.939V34.814A.562.562,0,0,0,17.438,34.251ZM13.5,35.939a.563.563,0,1,1,.563-.562A.562.562,0,0,1,13.5,35.939ZM3.375,38.751A1.126,1.126,0,0,1,2.25,37.626a1.125,1.125,0,0,0-2.25,0,3.369,3.369,0,0,0,2.25,3.168v7.52a.562.562,0,0,0,.563.563h2.25a.562.562,0,0,0,.563-.562V44.376H11.25v3.938a.562.562,0,0,0,.563.563h2.25a.562.562,0,0,0,.563-.562v-7.68L9.353,38.751Z" transform="translate(473 1358.999)"/></g></svg>