<svg xmlns="http://www.w3.org/2000/svg" width="24" height="24" viewBox="0 0 24 24"><defs><style>.a{fill:rgba(255,255,255,0);}</style></defs><g transform="translate(-470 -1348)"><rect class="a" width="24" height="24" transform="translate(470 1348)"/><path d="M3.75,11.875a.627.627,0,0,0,.625.625h4.59L5.215,8.75h-.84a.627.627,0,0,0-.625.625ZM10,0A10,10,0,1,0,20,10,10,10,0,0,0,10,0Zm0,17.5A7.488,7.488,0,0,1,3.895,5.66L14.34,16.105A7.448,7.448,0,0,1,10,17.5ZM11.766,10H15v1.25H13.016Zm4.34,4.34-1.84-1.84h1.359a.627.627,0,0,0,.625-.625v-2.5a.627.627,0,0,0-.625-.625H10.516L5.66,3.895A7.488,7.488,0,0,1,16.105,14.34ZM12.523,5A1.25,1.25,0,0,1,11.3,3.988.3.3,0,0,0,11,3.75h-.633a.319.319,0,0,0-.312.367A2.5,2.5,0,0,0,12.523,6.25,1.25,1.25,0,0,1,13.75,7.262a.3.3,0,0,0,.3.238h.633A.319.319,0,0,0,15,7.133,2.5,2.5,0,0,0,12.523,5Z" transform="translate(472 1350)"/></g></svg>