<svg xmlns="http://www.w3.org/2000/svg" width="24" height="24" viewBox="0 0 24 24"><defs><style>.a{fill:rgba(255,255,255,0);}}</style></defs><g transform="translate(-470 -1270)"><rect class="a" width="24" height="24" transform="translate(470 1270)"/><path class="b" d="M5.509,39.911H.562A.564.564,0,0,0,0,40.474V41.6a.564.564,0,0,0,.562.562h5a1.174,1.174,0,0,1,1.174.935,1.127,1.127,0,0,1-2.18.545.555.555,0,0,0-.534-.355H2.869a.56.56,0,0,0-.559.647,3.375,3.375,0,0,0,6.658-1.09A3.449,3.449,0,0,0,5.509,39.911ZM.562,38.786H12.374a3.376,3.376,0,1,0-3.312-4.018.554.554,0,0,0,.555.643h1.153a.552.552,0,0,0,.534-.355,1.127,1.127,0,0,1,2.18.545,1.171,1.171,0,0,1-1.174.935H.562A.564.564,0,0,0,0,37.1v1.125A.564.564,0,0,0,.562,38.786Zm13.5,1.125H8.567a4.444,4.444,0,0,1,1.4,2.25h4.1A1.687,1.687,0,1,1,12.6,44.678a.582.582,0,0,0-.51-.267H10.9a.563.563,0,0,0-.538.742,3.933,3.933,0,1,0,3.7-5.242Z" transform="translate(473 1241.962)"/></g></svg>